<mxfile host="app.diagrams.net" modified="2024-05-19T17:04:28.465Z" agent="Mozilla/5.0 (X11; Linux x86_64) AppleWebKit/537.36 (KHTML, like Gecko) Chrome/125.0.0.0 Safari/537.36" etag="yui_GDUruuFcJr1y5bg8" version="24.4.4" type="github">
  <diagram name="Page-1" id="Rsg2q7EpIwvR8_24DtbU">
    <mxGraphModel dx="879" dy="1682" grid="1" gridSize="10" guides="1" tooltips="1" connect="1" arrows="1" fold="1" page="1" pageScale="1" pageWidth="827" pageHeight="1169" math="0" shadow="0">
      <root>
        <mxCell id="0" />
        <mxCell id="1" parent="0" />
        <mxCell id="G8V8HJvEzYp26zgx4R_5-2" value="" style="rounded=0;whiteSpace=wrap;html=1;" vertex="1" parent="1">
          <mxGeometry x="20" y="-500" width="800" height="490" as="geometry" />
        </mxCell>
        <mxCell id="G8V8HJvEzYp26zgx4R_5-3" value="" style="rounded=1;whiteSpace=wrap;html=1;" vertex="1" parent="1">
          <mxGeometry x="50" y="-230" width="720" height="60" as="geometry" />
        </mxCell>
        <mxCell id="G8V8HJvEzYp26zgx4R_5-4" value="" style="rounded=1;whiteSpace=wrap;html=1;" vertex="1" parent="1">
          <mxGeometry x="50" y="-90" width="720" height="60" as="geometry" />
        </mxCell>
        <mxCell id="G8V8HJvEzYp26zgx4R_5-5" value="" style="rounded=1;whiteSpace=wrap;html=1;" vertex="1" parent="1">
          <mxGeometry x="50" y="-160" width="720" height="60" as="geometry" />
        </mxCell>
        <mxCell id="G8V8HJvEzYp26zgx4R_5-7" value="" style="rounded=1;whiteSpace=wrap;html=1;" vertex="1" parent="1">
          <mxGeometry x="50" y="-470" width="330" height="30" as="geometry" />
        </mxCell>
        <mxCell id="G8V8HJvEzYp26zgx4R_5-8" value="" style="rounded=1;whiteSpace=wrap;html=1;" vertex="1" parent="1">
          <mxGeometry x="400" y="-477.5" width="120" height="45" as="geometry" />
        </mxCell>
        <mxCell id="G8V8HJvEzYp26zgx4R_5-9" value="" style="rounded=1;whiteSpace=wrap;html=1;" vertex="1" parent="1">
          <mxGeometry x="600" y="-430" width="170" height="170" as="geometry" />
        </mxCell>
        <mxCell id="G8V8HJvEzYp26zgx4R_5-10" value="&lt;font style=&quot;font-size: 36px;&quot;&gt;33 C&lt;/font&gt;" style="text;html=1;align=center;verticalAlign=middle;whiteSpace=wrap;rounded=0;" vertex="1" parent="1">
          <mxGeometry x="290" y="-432.5" width="150" height="110" as="geometry" />
        </mxCell>
        <mxCell id="G8V8HJvEzYp26zgx4R_5-11" value="&lt;font style=&quot;font-size: 18px;&quot;&gt;Kannur , IN&lt;/font&gt;" style="text;html=1;align=center;verticalAlign=middle;whiteSpace=wrap;rounded=0;" vertex="1" parent="1">
          <mxGeometry x="290" y="-360" width="150" height="30" as="geometry" />
        </mxCell>
        <mxCell id="G8V8HJvEzYp26zgx4R_5-12" value="" style="ellipse;shape=cloud;whiteSpace=wrap;html=1;" vertex="1" parent="1">
          <mxGeometry x="100" y="-390" width="80" height="60" as="geometry" />
        </mxCell>
        <mxCell id="G8V8HJvEzYp26zgx4R_5-14" value="Sun rise&amp;nbsp;" style="text;html=1;align=center;verticalAlign=middle;whiteSpace=wrap;rounded=0;" vertex="1" parent="1">
          <mxGeometry x="90" y="-300" width="60" height="30" as="geometry" />
        </mxCell>
        <mxCell id="G8V8HJvEzYp26zgx4R_5-15" value="Low Temp" style="text;html=1;align=center;verticalAlign=middle;whiteSpace=wrap;rounded=0;" vertex="1" parent="1">
          <mxGeometry x="460" y="-300" width="60" height="30" as="geometry" />
        </mxCell>
        <mxCell id="G8V8HJvEzYp26zgx4R_5-16" value="High Temp&amp;nbsp;" style="text;html=1;align=center;verticalAlign=middle;whiteSpace=wrap;rounded=0;" vertex="1" parent="1">
          <mxGeometry x="335" y="-300" width="60" height="30" as="geometry" />
        </mxCell>
        <mxCell id="G8V8HJvEzYp26zgx4R_5-17" value="Sun set&amp;nbsp;" style="text;html=1;align=center;verticalAlign=middle;whiteSpace=wrap;rounded=0;" vertex="1" parent="1">
          <mxGeometry x="210" y="-300" width="60" height="30" as="geometry" />
        </mxCell>
        <mxCell id="G8V8HJvEzYp26zgx4R_5-19" value="&lt;font style=&quot;font-size: 18px;&quot;&gt;Fore cast Details&lt;/font&gt;" style="text;html=1;align=center;verticalAlign=middle;whiteSpace=wrap;rounded=0;rotation=1;" vertex="1" parent="1">
          <mxGeometry x="40" y="-260" width="160" height="30" as="geometry" />
        </mxCell>
        <mxCell id="G8V8HJvEzYp26zgx4R_5-21" value="Detail1" style="text;html=1;align=center;verticalAlign=middle;whiteSpace=wrap;rounded=0;" vertex="1" parent="1">
          <mxGeometry x="630" y="-410" width="60" height="30" as="geometry" />
        </mxCell>
        <mxCell id="G8V8HJvEzYp26zgx4R_5-22" value="Detail2" style="text;html=1;align=center;verticalAlign=middle;whiteSpace=wrap;rounded=0;" vertex="1" parent="1">
          <mxGeometry x="630" y="-360" width="60" height="30" as="geometry" />
        </mxCell>
        <mxCell id="G8V8HJvEzYp26zgx4R_5-23" value="Detail3" style="text;html=1;align=center;verticalAlign=middle;whiteSpace=wrap;rounded=0;" vertex="1" parent="1">
          <mxGeometry x="630" y="-310" width="60" height="30" as="geometry" />
        </mxCell>
        <mxCell id="G8V8HJvEzYp26zgx4R_5-24" value="Search City" style="text;html=1;align=center;verticalAlign=middle;whiteSpace=wrap;rounded=0;" vertex="1" parent="1">
          <mxGeometry x="50" y="-470" width="100" height="30" as="geometry" />
        </mxCell>
        <mxCell id="G8V8HJvEzYp26zgx4R_5-26" value="Search Button" style="text;html=1;align=center;verticalAlign=middle;whiteSpace=wrap;rounded=0;" vertex="1" parent="1">
          <mxGeometry x="410" y="-470" width="100" height="30" as="geometry" />
        </mxCell>
      </root>
    </mxGraphModel>
  </diagram>
</mxfile>
